<svg width="39.000000" height="39.000000" viewBox="0 0 39 39" fill="none" xmlns="http://www.w3.org/2000/svg" xmlns:xlink="http://www.w3.org/1999/xlink">
	<desc>
			Created with Pixso.
	</desc>
	<defs>
		<clipPath id="clip53_73">
			<rect id="Почта " width="39.000000" height="39.000000" fill="white" fill-opacity="0"/>
		</clipPath>
	</defs>
	<rect id="Почта " width="39.000000" height="39.000000" fill="#FFFFFF" fill-opacity="0"/>
	<g clip-path="url(#clip53_73)">
		<path id="Vector" d="M19.5 39C30.2695 39 39 30.2695 39 19.5C39 8.73047 30.2695 0 19.5 0C8.73045 0 0 8.73047 0 19.5C0 30.2695 8.73045 39 19.5 39Z" fill="#575972" fill-opacity="0.980000" fill-rule="evenodd"/>
		<path id="Vector" d="M9.75 14.1713L9.75 25.2133C9.75 25.814 10.1897 26.3009 10.7955 26.3009L28.0284 26.3009C28.6335 26.3009 29.0739 25.8083 29.0739 25.2133L29.0739 14.1713C29.0739 13.5121 28.6801 13 28.0284 13L10.7955 13C10.1186 13 9.75 13.5247 9.75 14.1713ZM11.3389 15.1331C11.3389 14.8669 11.5 14.7147 11.7572 14.7147C11.9164 14.7147 18.1784 18.6826 18.5577 18.9154L19.5378 19.5249C19.8485 19.3168 20.1605 19.1387 20.4825 18.923C21.1399 18.5028 26.9886 14.7147 27.1497 14.7147C27.4076 14.7147 27.568 14.8669 27.568 15.1331C27.568 15.4148 27.0251 15.6948 26.6716 15.9105C24.4505 17.2642 22.23 18.7399 20.0309 20.1439C19.9026 20.2307 19.6541 20.4163 19.4679 20.3879C19.2603 20.356 12.8882 16.2622 11.7289 15.5803C11.5547 15.4778 11.3389 15.384 11.3389 15.1331Z" fill="#CD7F09" fill-opacity="1.000000" fill-rule="evenodd"/>
	</g>
</svg>
