<svg width="38.836662" height="38.836670" viewBox="0 0 38.8367 38.8367" fill="none" xmlns="http://www.w3.org/2000/svg" xmlns:xlink="http://www.w3.org/1999/xlink">
	<desc>
			Created with Pixso.
	</desc>
	<defs/>
	<path id="Vector" d="M38.8367 19.4183C38.8367 30.1423 30.1423 38.8367 19.4183 38.8367C8.69426 38.8367 0 30.1423 0 19.4183C0 8.69434 8.69433 0 19.4183 0C30.1423 0 38.8367 8.69421 38.8367 19.4183Z" fill="#575972" fill-opacity="0.980000" fill-rule="evenodd"/>
	<path id="Vector" d="M18.779 6.25012C11.8151 6.5813 6.32015 12.3809 6.34105 19.3521C6.34761 21.4751 6.86008 23.4796 7.76469 25.2506L6.3764 31.9896C6.30098 32.3544 6.62997 32.6738 6.99208 32.5879L13.5956 31.0236C15.292 31.8685 17.198 32.3566 19.2148 32.3876C26.332 32.496 32.2667 26.8451 32.489 19.73C32.7265 12.1033 26.4318 5.88525 18.779 6.25012ZM26.6585 26.5522C24.7246 28.4861 22.1531 29.5511 19.4183 29.5511C17.8169 29.5511 16.2834 29.1917 14.8607 28.4832L13.9417 28.025L9.89256 28.9843L10.7445 24.847L10.2917 23.96C9.55308 22.5135 9.17882 20.9496 9.17882 19.3116C9.17882 16.5763 10.2438 14.0052 12.1777 12.0709C14.0942 10.1545 16.7074 9.07214 19.4184 9.07214C22.1532 9.07214 24.7246 10.1375 26.6585 12.0709C28.5924 14.0049 29.6574 16.5763 29.6574 19.3112C29.6579 22.0221 28.5754 24.6353 26.6585 26.5522Z" fill="#1AF572" fill-opacity="1.000000" fill-rule="evenodd"/>
	<path id="Vector" d="M25.7647 22.1476L23.2316 21.4203C22.8987 21.3248 22.54 21.4193 22.2973 21.6664L21.6781 22.2974C21.4167 22.5637 21.0206 22.6492 20.6749 22.5093C19.4766 22.0247 16.9558 19.7831 16.3126 18.6622C16.1265 18.339 16.1574 17.9351 16.3853 17.6395L16.9262 16.9402C17.1379 16.6661 17.1824 16.2979 17.0425 15.9811L15.977 13.5704C15.7217 12.9935 14.984 12.8253 14.502 13.2328C13.7953 13.8311 12.9563 14.7391 12.8544 15.7457C12.6745 17.5206 13.4357 19.7579 16.3135 22.4443C19.6387 25.5477 22.3013 25.9579 24.0353 25.5377C25.0187 25.2998 25.8044 24.3451 26.3003 23.5634C26.6384 23.0295 26.3713 22.3218 25.7647 22.1476Z" fill="#1AF572" fill-opacity="1.000000" fill-rule="evenodd"/>
</svg>
